<svg width="400" height="300" viewBox="0 0 400 300" fill="none" xmlns="http://www.w3.org/2000/svg">
<rect width="400" height="300" fill="white"/>
<path d="M110.158 141.545V159H108.112L98.6009 145.295H98.4304V159H96.3168V141.545H98.3622L107.908 155.284H108.078V141.545H110.158ZM119.433 159.273C118.251 159.273 117.214 158.991 116.322 158.429C115.435 157.866 114.742 157.08 114.242 156.068C113.748 155.057 113.501 153.875 113.501 152.523C113.501 151.159 113.748 149.969 114.242 148.952C114.742 147.935 115.435 147.145 116.322 146.582C117.214 146.02 118.251 145.739 119.433 145.739C120.614 145.739 121.648 146.02 122.535 146.582C123.427 147.145 124.12 147.935 124.614 148.952C125.114 149.969 125.364 151.159 125.364 152.523C125.364 153.875 125.114 155.057 124.614 156.068C124.12 157.08 123.427 157.866 122.535 158.429C121.648 158.991 120.614 159.273 119.433 159.273ZM119.433 157.466C120.33 157.466 121.069 157.236 121.648 156.776C122.228 156.315 122.657 155.71 122.935 154.96C123.214 154.21 123.353 153.398 123.353 152.523C123.353 151.648 123.214 150.832 122.935 150.077C122.657 149.321 122.228 148.71 121.648 148.244C121.069 147.778 120.33 147.545 119.433 147.545C118.535 147.545 117.796 147.778 117.217 148.244C116.637 148.71 116.208 149.321 115.93 150.077C115.651 150.832 115.512 151.648 115.512 152.523C115.512 153.398 115.651 154.21 115.93 154.96C116.208 155.71 116.637 156.315 117.217 156.776C117.796 157.236 118.535 157.466 119.433 157.466ZM135.185 159V145.909H137.196V159H135.185ZM136.207 143.727C135.815 143.727 135.477 143.594 135.193 143.327C134.915 143.06 134.776 142.739 134.776 142.364C134.776 141.989 134.915 141.668 135.193 141.401C135.477 141.134 135.815 141 136.207 141C136.599 141 136.935 141.134 137.213 141.401C137.497 141.668 137.639 141.989 137.639 142.364C137.639 142.739 137.497 143.06 137.213 143.327C136.935 143.594 136.599 143.727 136.207 143.727ZM140.88 159V145.909H142.823V147.955H142.994C143.266 147.256 143.707 146.713 144.315 146.327C144.923 145.935 145.653 145.739 146.505 145.739C147.369 145.739 148.087 145.935 148.661 146.327C149.241 146.713 149.692 147.256 150.016 147.955H150.153C150.488 147.278 150.991 146.741 151.661 146.344C152.332 145.94 153.136 145.739 154.073 145.739C155.244 145.739 156.201 146.105 156.945 146.838C157.69 147.565 158.062 148.699 158.062 150.239V159H156.05V150.239C156.05 149.273 155.786 148.582 155.258 148.168C154.729 147.753 154.107 147.545 153.391 147.545C152.471 147.545 151.758 147.824 151.252 148.381C150.746 148.932 150.494 149.631 150.494 150.477V159H148.448V150.034C148.448 149.29 148.207 148.69 147.724 148.236C147.241 147.776 146.619 147.545 145.857 147.545C145.335 147.545 144.846 147.685 144.391 147.963C143.942 148.241 143.579 148.628 143.3 149.122C143.028 149.611 142.891 150.176 142.891 150.818V159H140.88ZM165.592 159.307C164.762 159.307 164.009 159.151 163.333 158.838C162.657 158.52 162.12 158.062 161.722 157.466C161.325 156.864 161.126 156.136 161.126 155.284C161.126 154.534 161.273 153.926 161.569 153.46C161.864 152.989 162.259 152.619 162.754 152.352C163.248 152.085 163.793 151.886 164.39 151.756C164.992 151.619 165.597 151.511 166.205 151.432C167.001 151.33 167.646 151.253 168.14 151.202C168.64 151.145 169.004 151.051 169.231 150.92C169.464 150.79 169.58 150.562 169.58 150.239V150.17C169.58 149.33 169.35 148.676 168.89 148.21C168.435 147.744 167.745 147.511 166.819 147.511C165.859 147.511 165.106 147.722 164.56 148.142C164.015 148.562 163.631 149.011 163.41 149.489L161.501 148.807C161.842 148.011 162.296 147.392 162.864 146.949C163.438 146.5 164.063 146.187 164.739 146.011C165.421 145.83 166.092 145.739 166.751 145.739C167.171 145.739 167.654 145.79 168.2 145.892C168.751 145.989 169.282 146.19 169.793 146.497C170.31 146.804 170.739 147.267 171.08 147.886C171.421 148.506 171.592 149.335 171.592 150.375V159H169.58V157.227H169.478C169.342 157.511 169.114 157.815 168.796 158.139C168.478 158.463 168.055 158.739 167.526 158.966C166.998 159.193 166.353 159.307 165.592 159.307ZM165.898 157.5C166.694 157.5 167.364 157.344 167.91 157.031C168.461 156.719 168.876 156.315 169.154 155.821C169.438 155.327 169.58 154.807 169.58 154.261V152.42C169.495 152.523 169.308 152.616 169.018 152.702C168.734 152.781 168.404 152.852 168.029 152.915C167.66 152.972 167.299 153.023 166.947 153.068C166.6 153.108 166.319 153.142 166.103 153.17C165.58 153.239 165.092 153.349 164.637 153.503C164.188 153.651 163.825 153.875 163.546 154.176C163.273 154.472 163.137 154.875 163.137 155.386C163.137 156.085 163.396 156.614 163.913 156.972C164.435 157.324 165.097 157.5 165.898 157.5ZM180.547 164.182C179.575 164.182 178.74 164.057 178.041 163.807C177.342 163.562 176.76 163.239 176.294 162.835C175.834 162.438 175.467 162.011 175.195 161.557L176.797 160.432C176.979 160.67 177.209 160.943 177.487 161.25C177.766 161.562 178.146 161.832 178.629 162.06C179.118 162.293 179.757 162.409 180.547 162.409C181.604 162.409 182.476 162.153 183.163 161.642C183.851 161.131 184.195 160.33 184.195 159.239V156.58H184.024C183.876 156.818 183.666 157.114 183.393 157.466C183.126 157.812 182.74 158.122 182.234 158.395C181.734 158.662 181.058 158.795 180.206 158.795C179.149 158.795 178.2 158.545 177.359 158.045C176.524 157.545 175.862 156.818 175.374 155.864C174.891 154.909 174.649 153.75 174.649 152.386C174.649 151.045 174.885 149.878 175.357 148.884C175.828 147.884 176.484 147.111 177.325 146.565C178.166 146.014 179.138 145.739 180.24 145.739C181.092 145.739 181.768 145.881 182.268 146.165C182.774 146.443 183.161 146.761 183.428 147.119C183.7 147.472 183.911 147.761 184.058 147.989H184.263V145.909H186.206V159.375C186.206 160.5 185.95 161.415 185.439 162.119C184.933 162.83 184.251 163.349 183.393 163.679C182.541 164.014 181.592 164.182 180.547 164.182ZM180.479 156.989C181.286 156.989 181.967 156.804 182.524 156.435C183.081 156.065 183.504 155.534 183.794 154.841C184.084 154.148 184.229 153.318 184.229 152.352C184.229 151.409 184.087 150.577 183.803 149.855C183.518 149.134 183.098 148.568 182.541 148.159C181.984 147.75 181.297 147.545 180.479 147.545C179.626 147.545 178.916 147.761 178.348 148.193C177.786 148.625 177.362 149.205 177.078 149.932C176.8 150.659 176.661 151.466 176.661 152.352C176.661 153.261 176.803 154.065 177.087 154.764C177.376 155.457 177.803 156.003 178.365 156.401C178.933 156.793 179.638 156.989 180.479 156.989ZM195.376 159.273C194.115 159.273 193.027 158.994 192.112 158.438C191.203 157.875 190.501 157.091 190.007 156.085C189.518 155.074 189.274 153.898 189.274 152.557C189.274 151.216 189.518 150.034 190.007 149.011C190.501 147.983 191.189 147.182 192.07 146.608C192.956 146.028 193.99 145.739 195.172 145.739C195.854 145.739 196.527 145.852 197.192 146.08C197.857 146.307 198.462 146.676 199.007 147.188C199.553 147.693 199.987 148.364 200.311 149.199C200.635 150.034 200.797 151.062 200.797 152.284V153.136H190.706V151.398H198.751C198.751 150.659 198.604 150 198.308 149.42C198.018 148.841 197.604 148.384 197.064 148.048C196.53 147.713 195.899 147.545 195.172 147.545C194.371 147.545 193.678 147.744 193.092 148.142C192.513 148.534 192.067 149.045 191.754 149.676C191.442 150.307 191.286 150.983 191.286 151.705V152.864C191.286 153.852 191.456 154.69 191.797 155.378C192.143 156.06 192.624 156.58 193.237 156.938C193.851 157.29 194.564 157.466 195.376 157.466C195.905 157.466 196.382 157.392 196.808 157.244C197.24 157.091 197.612 156.864 197.925 156.562C198.237 156.256 198.479 155.875 198.649 155.42L200.592 155.966C200.388 156.625 200.044 157.205 199.561 157.705C199.078 158.199 198.482 158.585 197.771 158.864C197.061 159.136 196.263 159.273 195.376 159.273ZM219.879 148.841L218.072 149.352C217.959 149.051 217.791 148.759 217.57 148.474C217.354 148.185 217.058 147.946 216.683 147.759C216.308 147.571 215.828 147.477 215.243 147.477C214.442 147.477 213.774 147.662 213.24 148.031C212.712 148.395 212.447 148.858 212.447 149.42C212.447 149.92 212.629 150.315 212.993 150.605C213.357 150.895 213.925 151.136 214.697 151.33L216.641 151.807C217.811 152.091 218.683 152.526 219.257 153.111C219.831 153.69 220.118 154.437 220.118 155.352C220.118 156.102 219.902 156.773 219.47 157.364C219.044 157.955 218.447 158.42 217.68 158.761C216.913 159.102 216.021 159.273 215.004 159.273C213.669 159.273 212.564 158.983 211.689 158.403C210.814 157.824 210.26 156.977 210.027 155.864L211.936 155.386C212.118 156.091 212.462 156.619 212.967 156.972C213.479 157.324 214.146 157.5 214.97 157.5C215.908 157.5 216.652 157.301 217.203 156.903C217.76 156.5 218.038 156.017 218.038 155.455C218.038 155 217.879 154.619 217.561 154.312C217.243 154 216.754 153.767 216.095 153.614L213.913 153.102C212.714 152.818 211.834 152.378 211.271 151.781C210.714 151.179 210.436 150.426 210.436 149.523C210.436 148.784 210.643 148.131 211.058 147.562C211.479 146.994 212.05 146.548 212.771 146.224C213.499 145.901 214.322 145.739 215.243 145.739C216.538 145.739 217.555 146.023 218.294 146.591C219.038 147.159 219.567 147.909 219.879 148.841ZM228.634 159.273C227.373 159.273 226.285 158.994 225.37 158.438C224.461 157.875 223.759 157.091 223.265 156.085C222.776 155.074 222.532 153.898 222.532 152.557C222.532 151.216 222.776 150.034 223.265 149.011C223.759 147.983 224.447 147.182 225.327 146.608C226.214 146.028 227.248 145.739 228.43 145.739C229.112 145.739 229.785 145.852 230.45 146.08C231.114 146.307 231.719 146.676 232.265 147.188C232.81 147.693 233.245 148.364 233.569 149.199C233.893 150.034 234.055 151.062 234.055 152.284V153.136H223.964V151.398H232.009C232.009 150.659 231.862 150 231.566 149.42C231.276 148.841 230.862 148.384 230.322 148.048C229.788 147.713 229.157 147.545 228.43 147.545C227.629 147.545 226.935 147.744 226.35 148.142C225.771 148.534 225.325 149.045 225.012 149.676C224.7 150.307 224.543 150.983 224.543 151.705V152.864C224.543 153.852 224.714 154.69 225.055 155.378C225.401 156.06 225.881 156.58 226.495 156.938C227.109 157.29 227.822 157.466 228.634 157.466C229.163 157.466 229.64 157.392 230.066 157.244C230.498 157.091 230.87 156.864 231.183 156.562C231.495 156.256 231.737 155.875 231.907 155.42L233.85 155.966C233.646 156.625 233.302 157.205 232.819 157.705C232.336 158.199 231.739 158.585 231.029 158.864C230.319 159.136 229.521 159.273 228.634 159.273ZM239.126 141.545V159H237.114V141.545H239.126ZM248.298 159.273C247.037 159.273 245.949 158.994 245.034 158.438C244.125 157.875 243.423 157.091 242.929 156.085C242.44 155.074 242.196 153.898 242.196 152.557C242.196 151.216 242.44 150.034 242.929 149.011C243.423 147.983 244.111 147.182 244.991 146.608C245.878 146.028 246.912 145.739 248.094 145.739C248.776 145.739 249.449 145.852 250.114 146.08C250.778 146.307 251.384 146.676 251.929 147.188C252.474 147.693 252.909 148.364 253.233 149.199C253.557 150.034 253.719 151.062 253.719 152.284V153.136H243.628V151.398H251.673C251.673 150.659 251.526 150 251.23 149.42C250.94 148.841 250.526 148.384 249.986 148.048C249.452 147.713 248.821 147.545 248.094 147.545C247.293 147.545 246.599 147.744 246.014 148.142C245.435 148.534 244.989 149.045 244.676 149.676C244.364 150.307 244.207 150.983 244.207 151.705V152.864C244.207 153.852 244.378 154.69 244.719 155.378C245.065 156.06 245.545 156.58 246.159 156.938C246.773 157.29 247.486 157.466 248.298 157.466C248.827 157.466 249.304 157.392 249.73 157.244C250.162 157.091 250.534 156.864 250.847 156.562C251.159 156.256 251.401 155.875 251.571 155.42L253.514 155.966C253.31 156.625 252.966 157.205 252.483 157.705C252 158.199 251.403 158.585 250.693 158.864C249.983 159.136 249.185 159.273 248.298 159.273ZM262.097 159.273C260.869 159.273 259.813 158.983 258.926 158.403C258.04 157.824 257.358 157.026 256.881 156.009C256.403 154.991 256.165 153.83 256.165 152.523C256.165 151.193 256.409 150.02 256.898 149.003C257.392 147.98 258.08 147.182 258.96 146.608C259.847 146.028 260.881 145.739 262.062 145.739C262.983 145.739 263.812 145.909 264.551 146.25C265.29 146.591 265.895 147.068 266.366 147.682C266.838 148.295 267.131 149.011 267.244 149.83H265.233C265.08 149.233 264.739 148.705 264.21 148.244C263.688 147.778 262.983 147.545 262.097 147.545C261.313 147.545 260.625 147.75 260.034 148.159C259.449 148.562 258.991 149.134 258.662 149.872C258.338 150.605 258.176 151.466 258.176 152.455C258.176 153.466 258.335 154.347 258.653 155.097C258.977 155.847 259.432 156.429 260.017 156.844C260.608 157.259 261.301 157.466 262.097 157.466C262.619 157.466 263.094 157.375 263.52 157.193C263.946 157.011 264.307 156.75 264.602 156.409C264.898 156.068 265.108 155.659 265.233 155.182H267.244C267.131 155.955 266.849 156.651 266.401 157.27C265.957 157.884 265.369 158.372 264.636 158.736C263.909 159.094 263.063 159.273 262.097 159.273ZM275.878 145.909V147.614H269.094V145.909H275.878ZM271.071 142.773H273.082V155.25C273.082 155.818 273.165 156.244 273.33 156.528C273.5 156.807 273.716 156.994 273.977 157.091C274.244 157.182 274.526 157.227 274.821 157.227C275.043 157.227 275.224 157.216 275.366 157.193C275.509 157.165 275.622 157.142 275.707 157.125L276.116 158.932C275.98 158.983 275.79 159.034 275.545 159.085C275.301 159.142 274.991 159.17 274.616 159.17C274.048 159.17 273.491 159.048 272.946 158.804C272.406 158.56 271.957 158.188 271.599 157.688C271.247 157.188 271.071 156.557 271.071 155.795V142.773ZM284.251 159.273C282.99 159.273 281.902 158.994 280.987 158.438C280.078 157.875 279.376 157.091 278.882 156.085C278.393 155.074 278.149 153.898 278.149 152.557C278.149 151.216 278.393 150.034 278.882 149.011C279.376 147.983 280.064 147.182 280.945 146.608C281.831 146.028 282.865 145.739 284.047 145.739C284.729 145.739 285.402 145.852 286.067 146.08C286.732 146.307 287.337 146.676 287.882 147.188C288.428 147.693 288.862 148.364 289.186 149.199C289.51 150.034 289.672 151.062 289.672 152.284V153.136H279.581V151.398H287.626C287.626 150.659 287.479 150 287.183 149.42C286.893 148.841 286.479 148.384 285.939 148.048C285.405 147.713 284.774 147.545 284.047 147.545C283.246 147.545 282.553 147.744 281.967 148.142C281.388 148.534 280.942 149.045 280.629 149.676C280.317 150.307 280.161 150.983 280.161 151.705V152.864C280.161 153.852 280.331 154.69 280.672 155.378C281.018 156.06 281.499 156.58 282.112 156.938C282.726 157.29 283.439 157.466 284.251 157.466C284.78 157.466 285.257 157.392 285.683 157.244C286.115 157.091 286.487 156.864 286.8 156.562C287.112 156.256 287.354 155.875 287.524 155.42L289.467 155.966C289.263 156.625 288.919 157.205 288.436 157.705C287.953 158.199 287.357 158.585 286.646 158.864C285.936 159.136 285.138 159.273 284.251 159.273ZM297.675 159.273C296.584 159.273 295.621 158.997 294.786 158.446C293.95 157.889 293.297 157.105 292.825 156.094C292.354 155.077 292.118 153.875 292.118 152.489C292.118 151.114 292.354 149.92 292.825 148.909C293.297 147.898 293.953 147.116 294.794 146.565C295.635 146.014 296.607 145.739 297.709 145.739C298.561 145.739 299.234 145.881 299.729 146.165C300.229 146.443 300.609 146.761 300.871 147.119C301.138 147.472 301.345 147.761 301.493 147.989H301.663V141.545H303.675V159H301.732V156.989H301.493C301.345 157.227 301.135 157.528 300.862 157.892C300.589 158.25 300.2 158.571 299.695 158.855C299.189 159.134 298.516 159.273 297.675 159.273ZM297.947 157.466C298.754 157.466 299.436 157.256 299.993 156.835C300.55 156.409 300.973 155.821 301.263 155.071C301.553 154.315 301.697 153.443 301.697 152.455C301.697 151.477 301.555 150.622 301.271 149.889C300.987 149.151 300.567 148.577 300.01 148.168C299.453 147.753 298.766 147.545 297.947 147.545C297.095 147.545 296.385 147.764 295.817 148.202C295.254 148.634 294.831 149.222 294.547 149.966C294.268 150.705 294.129 151.534 294.129 152.455C294.129 153.386 294.271 154.233 294.555 154.994C294.845 155.75 295.271 156.352 295.834 156.801C296.402 157.244 297.107 157.466 297.947 157.466Z" fill="#ABABAB"/>
</svg>
